<svg id="svg" version="1.1" xmlns="http://www.w3.org/2000/svg" xmlns:xlink="http://www.w3.org/1999/xlink" width="400" height="400" viewBox="0, 0, 400,400"><g id="svgg"><path id="path0" d="M191.400 78.055 C 190.300 78.254,188.140 78.619,186.600 78.866 C 185.060 79.113,182.810 79.575,181.600 79.892 C 180.390 80.210,178.770 80.627,178.000 80.820 C 173.555 81.933,163.151 86.507,159.728 88.854 C 158.808 89.484,157.955 90.000,157.833 90.000 C 157.710 90.000,157.292 90.261,156.905 90.581 C 156.517 90.901,154.760 92.225,153.000 93.524 C 148.433 96.894,140.974 104.294,138.408 108.000 C 137.875 108.770,137.318 109.490,137.171 109.600 C 135.813 110.615,127.600 125.656,127.600 127.128 C 127.600 127.599,127.409 128.063,126.462 129.895 C 126.208 130.387,126.000 131.141,126.000 131.571 C 126.000 132.001,125.840 132.452,125.644 132.573 C 125.449 132.694,125.192 133.379,125.073 134.096 C 124.955 134.813,124.652 136.210,124.401 137.200 C 121.705 147.824,121.703 162.885,124.397 173.600 C 124.646 174.590,124.951 175.940,125.075 176.600 C 125.199 177.260,125.425 177.980,125.578 178.200 C 125.731 178.420,126.100 179.410,126.398 180.400 C 126.695 181.390,127.088 182.371,127.270 182.580 C 127.451 182.789,127.600 183.203,127.600 183.501 C 127.600 184.287,131.703 192.698,133.638 195.878 C 141.196 208.302,152.998 218.948,166.400 225.433 C 168.490 226.444,170.513 227.435,170.895 227.636 C 171.277 227.836,171.916 228.000,172.315 228.000 C 172.714 228.000,173.211 228.148,173.420 228.328 C 173.748 228.611,176.880 229.632,181.000 230.798 C 181.660 230.984,183.235 231.331,184.500 231.569 C 185.765 231.806,187.835 232.207,189.100 232.460 C 192.230 233.087,207.452 233.075,211.000 232.444 C 217.027 231.371,218.225 231.116,218.895 230.765 C 219.277 230.564,219.885 230.400,220.247 230.400 C 221.945 230.400,228.493 227.933,234.192 225.147 C 241.894 221.382,255.565 211.217,257.484 207.828 C 257.658 207.521,258.430 206.579,259.200 205.734 C 263.942 200.532,269.552 191.185,272.364 183.800 C 272.867 182.480,273.424 181.040,273.603 180.600 C 274.203 179.122,274.498 178.208,274.832 176.800 C 275.014 176.030,275.363 174.590,275.607 173.600 C 278.394 162.283,278.401 148.403,275.625 137.300 C 275.391 136.365,275.043 134.925,274.850 134.100 C 274.501 132.602,274.215 131.707,273.603 130.200 C 273.424 129.760,272.867 128.320,272.364 127.000 C 267.769 114.939,257.981 101.759,248.000 94.197 C 246.570 93.113,245.340 92.086,245.267 91.913 C 245.193 91.741,244.906 91.600,244.629 91.600 C 244.351 91.600,243.798 91.240,243.400 90.800 C 243.002 90.360,242.511 90.000,242.310 90.000 C 242.109 90.000,241.192 89.488,240.272 88.862 C 233.138 84.005,221.067 79.891,208.493 78.030 C 205.065 77.523,194.262 77.539,191.400 78.055 " stroke="none" fill="#fce3d3" fill-rule="evenodd"></path><path id="path1" d="M181.200 0.276 C 179.551 0.366,178.030 0.610,177.820 0.820 C 177.611 1.029,176.407 1.200,175.144 1.200 C 173.881 1.200,172.736 1.380,172.600 1.600 C 172.464 1.820,171.463 2.000,170.376 2.000 C 169.289 2.000,168.400 2.180,168.400 2.400 C 168.400 2.620,167.680 2.800,166.800 2.800 C 165.920 2.800,165.200 2.980,165.200 3.200 C 165.200 3.420,164.480 3.600,163.600 3.600 C 162.720 3.600,162.000 3.780,162.000 4.000 C 162.000 4.220,161.370 4.400,160.600 4.400 C 159.830 4.400,159.200 4.580,159.200 4.800 C 159.200 5.020,158.480 5.200,157.600 5.200 C 156.720 5.200,156.000 5.380,156.000 5.600 C 156.000 5.820,155.381 6.000,154.624 6.000 C 153.867 6.000,153.136 6.180,153.000 6.400 C 152.864 6.620,152.403 6.800,151.976 6.800 C 151.549 6.800,151.200 6.980,151.200 7.200 C 151.200 7.420,150.660 7.600,150.000 7.600 C 149.340 7.600,148.800 7.780,148.800 8.000 C 148.800 8.220,148.260 8.400,147.600 8.400 C 146.940 8.400,146.400 8.591,146.400 8.824 C 146.400 9.057,146.253 9.156,146.074 9.045 C 145.727 8.831,143.003 9.664,142.541 10.126 C 142.390 10.277,141.847 10.400,141.333 10.400 C 140.820 10.400,140.400 10.580,140.400 10.800 C 140.400 11.020,140.164 11.200,139.875 11.200 C 139.353 11.200,137.196 12.130,134.262 13.619 C 133.416 14.049,132.471 14.400,132.162 14.400 C 131.853 14.400,131.600 14.580,131.600 14.800 C 131.600 15.020,131.240 15.200,130.800 15.200 C 130.360 15.200,130.000 15.380,130.000 15.600 C 130.000 15.820,129.640 16.000,129.200 16.000 C 128.760 16.000,128.400 16.146,128.400 16.325 C 128.400 16.504,127.770 16.898,127.000 17.200 C 126.230 17.502,125.600 17.896,125.600 18.075 C 125.600 18.254,125.280 18.400,124.888 18.400 C 124.497 18.400,123.917 18.760,123.600 19.200 C 123.283 19.640,122.703 20.000,122.312 20.000 C 121.920 20.000,121.600 20.180,121.600 20.400 C 121.600 20.620,121.280 20.800,120.888 20.800 C 120.497 20.800,119.917 21.160,119.600 21.600 C 119.283 22.040,118.703 22.400,118.312 22.400 C 117.920 22.400,117.600 22.580,117.600 22.800 C 117.600 23.020,117.280 23.200,116.888 23.200 C 116.497 23.200,115.917 23.560,115.600 24.000 C 115.283 24.440,114.737 24.800,114.387 24.800 C 114.037 24.800,113.402 25.125,112.975 25.522 C 112.549 25.920,112.020 26.305,111.800 26.378 C 111.215 26.574,108.704 28.478,107.953 29.296 C 107.597 29.683,107.129 30.000,106.912 30.000 C 106.696 30.000,105.954 30.540,105.263 31.200 C 104.572 31.860,103.808 32.400,103.564 32.400 C 103.320 32.400,102.644 32.902,102.060 33.515 C 101.477 34.129,100.370 35.070,99.600 35.608 C 98.830 36.145,96.916 37.848,95.346 39.392 C 93.777 40.936,91.437 43.216,90.146 44.458 C 86.327 48.134,81.045 53.732,79.993 55.218 C 79.455 55.978,78.690 56.960,78.293 57.400 C 77.014 58.817,74.808 61.791,74.804 62.104 C 74.802 62.271,74.260 62.972,73.600 63.663 C 72.940 64.354,72.400 65.096,72.400 65.312 C 72.400 65.529,72.084 65.997,71.697 66.353 C 71.311 66.709,70.740 67.495,70.430 68.100 C 70.119 68.705,69.715 69.200,69.532 69.200 C 69.350 69.200,69.200 69.478,69.200 69.817 C 69.200 70.156,68.840 70.820,68.400 71.292 C 67.960 71.764,67.600 72.387,67.600 72.675 C 67.600 72.964,67.420 73.200,67.200 73.200 C 66.980 73.200,66.800 73.494,66.800 73.853 C 66.800 74.212,66.471 74.797,66.070 75.153 C 65.668 75.509,65.084 76.385,64.772 77.100 C 64.460 77.815,64.086 78.400,63.940 78.400 C 63.601 78.400,58.400 89.022,58.400 89.717 C 58.400 90.455,57.460 92.393,57.100 92.397 C 56.935 92.399,56.800 92.760,56.800 93.200 C 56.800 93.640,56.620 94.000,56.400 94.000 C 56.180 94.000,56.000 94.349,56.000 94.776 C 56.000 95.203,55.820 95.664,55.600 95.800 C 55.380 95.936,55.200 96.487,55.200 97.024 C 55.200 97.561,55.020 98.000,54.800 98.000 C 54.580 98.000,54.400 98.540,54.400 99.200 C 54.400 99.860,54.220 100.400,54.000 100.400 C 53.780 100.400,53.600 100.749,53.600 101.176 C 53.600 101.603,53.420 102.064,53.200 102.200 C 52.980 102.336,52.800 102.887,52.800 103.424 C 52.800 103.961,52.620 104.400,52.400 104.400 C 52.180 104.400,52.000 104.940,52.000 105.600 C 52.000 106.260,51.820 106.800,51.600 106.800 C 51.380 106.800,51.200 107.340,51.200 108.000 C 51.200 108.660,51.020 109.200,50.800 109.200 C 50.580 109.200,50.400 109.830,50.400 110.600 C 50.400 111.370,50.220 112.000,50.000 112.000 C 49.780 112.000,49.600 112.720,49.600 113.600 C 49.600 114.480,49.420 115.200,49.200 115.200 C 48.980 115.200,48.800 115.819,48.800 116.576 C 48.800 117.333,48.620 118.064,48.400 118.200 C 48.180 118.336,48.000 118.966,48.000 119.600 C 48.000 120.234,47.820 120.864,47.600 121.000 C 47.380 121.136,47.200 122.047,47.200 123.024 C 47.200 124.001,47.020 124.800,46.800 124.800 C 46.580 124.800,46.400 125.700,46.400 126.800 C 46.400 127.900,46.220 128.800,46.000 128.800 C 45.775 128.800,45.600 129.925,45.600 131.376 C 45.600 132.793,45.420 134.064,45.200 134.200 C 44.980 134.336,44.800 135.956,44.800 137.800 C 44.800 139.644,44.620 141.264,44.400 141.400 C 43.853 141.738,43.853 169.462,44.400 169.800 C 44.621 169.937,44.800 171.737,44.800 173.824 C 44.800 176.075,44.962 177.600,45.200 177.600 C 45.425 177.600,45.600 178.725,45.600 180.176 C 45.600 181.593,45.780 182.864,46.000 183.000 C 46.220 183.136,46.400 184.216,46.400 185.400 C 46.400 186.584,46.580 187.664,46.800 187.800 C 47.020 187.936,47.200 188.847,47.200 189.824 C 47.200 190.801,47.380 191.600,47.600 191.600 C 47.820 191.600,48.000 192.399,48.000 193.376 C 48.000 194.353,48.180 195.264,48.400 195.400 C 48.620 195.536,48.800 196.357,48.800 197.224 C 48.800 198.091,48.980 198.800,49.200 198.800 C 49.420 198.800,49.600 199.509,49.600 200.376 C 49.600 201.243,49.780 202.064,50.000 202.200 C 50.220 202.336,50.400 202.966,50.400 203.600 C 50.400 204.234,50.580 204.864,50.800 205.000 C 51.020 205.136,51.200 205.766,51.200 206.400 C 51.200 207.034,51.380 207.664,51.600 207.800 C 51.820 207.936,52.000 208.577,52.000 209.224 C 52.000 209.871,52.180 210.400,52.400 210.400 C 52.620 210.400,52.800 211.019,52.800 211.776 C 52.800 212.533,52.980 213.264,53.200 213.400 C 53.420 213.536,53.600 214.087,53.600 214.624 C 53.600 215.161,53.780 215.600,54.000 215.600 C 54.220 215.600,54.400 216.039,54.400 216.576 C 54.400 217.113,54.580 217.664,54.800 217.800 C 55.020 217.936,55.200 218.487,55.200 219.024 C 55.200 219.561,55.380 220.000,55.600 220.000 C 55.820 220.000,56.000 220.540,56.000 221.200 C 56.000 221.860,56.180 222.400,56.400 222.400 C 56.620 222.400,56.800 222.940,56.800 223.600 C 56.800 224.260,56.980 224.800,57.200 224.800 C 57.420 224.800,57.600 225.250,57.600 225.800 C 57.600 226.350,57.780 226.800,58.000 226.800 C 58.220 226.800,58.408 227.115,58.418 227.500 C 58.427 227.885,58.710 228.920,59.047 229.800 C 59.383 230.680,59.675 231.625,59.696 231.900 C 59.716 232.175,59.883 232.400,60.067 232.400 C 60.250 232.400,60.400 232.839,60.400 233.376 C 60.400 233.913,60.580 234.464,60.800 234.600 C 61.020 234.736,61.200 235.197,61.200 235.624 C 61.200 236.051,61.380 236.400,61.600 236.400 C 61.820 236.400,62.000 236.672,62.000 237.005 C 62.000 237.338,62.168 237.923,62.374 238.305 C 62.579 238.687,62.983 239.585,63.271 240.300 C 63.560 241.015,63.931 241.600,64.098 241.600 C 64.264 241.600,64.400 241.960,64.400 242.400 C 64.400 242.840,64.580 243.200,64.800 243.200 C 65.020 243.200,65.200 243.740,65.200 244.400 C 65.200 245.060,65.380 245.600,65.600 245.600 C 65.820 245.600,66.000 245.960,66.000 246.400 C 66.000 246.840,66.180 247.200,66.400 247.200 C 66.620 247.200,66.800 247.560,66.800 248.000 C 66.800 248.440,66.980 248.800,67.200 248.800 C 67.420 248.800,67.600 249.160,67.600 249.600 C 67.600 250.040,67.780 250.400,68.000 250.400 C 68.220 250.400,68.400 250.760,68.400 251.200 C 68.400 251.640,68.580 252.000,68.800 252.000 C 69.020 252.000,69.200 252.360,69.200 252.800 C 69.200 253.240,69.380 253.600,69.600 253.600 C 69.820 253.600,70.000 253.960,70.000 254.400 C 70.000 254.840,70.180 255.200,70.400 255.200 C 70.620 255.200,70.800 255.560,70.800 256.000 C 70.800 256.440,70.946 256.800,71.125 256.800 C 71.304 256.800,71.698 257.430,72.000 258.200 C 72.302 258.970,72.696 259.600,72.875 259.600 C 73.054 259.600,73.200 259.960,73.200 260.400 C 73.200 260.840,73.380 261.200,73.600 261.200 C 73.820 261.200,74.000 261.545,74.000 261.967 C 74.000 262.388,74.146 262.793,74.325 262.867 C 74.504 262.940,75.336 264.395,76.173 266.100 C 77.010 267.805,77.854 269.200,78.048 269.200 C 78.241 269.200,78.400 269.560,78.400 270.000 C 78.400 270.440,78.580 270.800,78.800 270.800 C 79.020 270.800,79.200 271.036,79.200 271.325 C 79.200 271.613,79.515 272.198,79.900 272.625 C 80.285 273.051,80.870 273.940,81.200 274.600 C 81.530 275.260,82.115 276.149,82.500 276.575 C 82.885 277.002,83.200 277.587,83.200 277.875 C 83.200 278.164,83.380 278.400,83.600 278.400 C 83.820 278.400,84.000 278.678,84.000 279.017 C 84.000 279.356,84.360 280.020,84.800 280.492 C 85.240 280.964,85.600 281.587,85.600 281.875 C 85.600 282.164,85.780 282.400,86.000 282.400 C 86.220 282.400,86.400 282.678,86.400 283.017 C 86.400 283.356,86.760 284.020,87.200 284.492 C 87.640 284.964,88.000 285.587,88.000 285.875 C 88.000 286.164,88.180 286.400,88.400 286.400 C 88.620 286.400,88.800 286.636,88.800 286.925 C 88.800 287.213,89.160 287.836,89.600 288.308 C 90.040 288.780,90.400 289.354,90.400 289.583 C 90.400 289.812,90.580 290.000,90.800 290.000 C 91.020 290.000,91.200 290.188,91.200 290.417 C 91.200 290.646,91.377 291.051,91.594 291.317 C 93.507 293.663,94.000 294.391,94.000 294.869 C 94.000 295.174,94.360 295.683,94.800 296.000 C 95.240 296.317,95.600 296.857,95.600 297.200 C 95.600 297.543,95.960 298.083,96.400 298.400 C 96.840 298.717,97.200 299.257,97.200 299.600 C 97.200 299.943,97.560 300.483,98.000 300.800 C 98.440 301.117,98.800 301.657,98.800 302.000 C 98.800 302.343,99.160 302.883,99.600 303.200 C 100.040 303.517,100.400 303.980,100.400 304.229 C 100.400 304.478,100.940 305.246,101.600 305.937 C 102.260 306.628,102.800 307.302,102.800 307.436 C 102.800 307.570,103.340 308.183,104.000 308.800 C 104.660 309.417,105.200 310.137,105.200 310.400 C 105.200 310.663,105.740 311.383,106.400 312.000 C 107.060 312.617,107.600 313.409,107.600 313.760 C 107.600 314.112,107.744 314.400,107.920 314.400 C 108.096 314.400,108.741 315.192,109.352 316.159 C 109.964 317.127,110.770 318.252,111.143 318.659 C 111.516 319.067,112.258 320.030,112.792 320.800 C 113.325 321.570,114.086 322.491,114.481 322.847 C 114.876 323.203,115.200 323.622,115.200 323.778 C 115.200 323.935,115.920 324.754,116.800 325.600 C 117.680 326.446,118.400 327.313,118.400 327.528 C 118.400 327.743,119.300 328.838,120.400 329.961 C 121.500 331.085,122.400 332.156,122.400 332.343 C 122.400 332.529,122.910 333.215,123.533 333.866 C 124.155 334.518,125.388 336.030,126.272 337.226 C 127.156 338.422,128.717 340.149,129.740 341.063 C 130.763 341.978,131.600 342.911,131.600 343.136 C 131.600 343.361,133.040 344.999,134.800 346.776 C 136.560 348.552,138.000 350.190,138.000 350.414 C 138.000 350.639,140.581 353.414,143.735 356.582 C 146.888 359.749,149.773 362.805,150.145 363.373 C 150.857 364.459,160.888 374.387,162.685 375.784 C 163.263 376.233,165.550 378.400,167.769 380.600 C 169.988 382.800,172.342 385.016,173.002 385.524 C 173.661 386.032,175.775 387.967,177.700 389.824 C 179.624 391.681,181.393 393.200,181.631 393.200 C 181.868 393.200,182.754 393.920,183.600 394.800 C 184.446 395.680,185.382 396.400,185.680 396.400 C 185.979 396.400,186.483 396.760,186.800 397.200 C 187.117 397.640,187.697 398.000,188.088 398.000 C 188.480 398.000,188.800 398.180,188.800 398.400 C 188.800 398.620,189.325 398.800,189.967 398.800 C 190.608 398.800,191.208 399.025,191.300 399.300 C 191.541 400.023,208.459 400.023,208.700 399.300 C 208.792 399.025,209.392 398.800,210.033 398.800 C 210.675 398.800,211.200 398.620,211.200 398.400 C 211.200 398.180,211.520 398.000,211.912 398.000 C 212.303 398.000,212.883 397.640,213.200 397.200 C 213.517 396.760,214.021 396.400,214.320 396.400 C 214.618 396.400,215.554 395.680,216.400 394.800 C 217.246 393.920,218.132 393.200,218.369 393.200 C 218.607 393.200,220.376 391.681,222.300 389.824 C 224.225 387.967,226.339 386.032,226.998 385.524 C 227.658 385.016,230.012 382.800,232.231 380.600 C 234.450 378.400,236.737 376.233,237.315 375.784 C 239.112 374.387,249.143 364.459,249.855 363.373 C 250.226 362.805,253.111 359.756,256.265 356.596 C 259.419 353.436,262.000 350.660,262.000 350.428 C 262.000 350.196,263.440 348.552,265.200 346.776 C 266.960 344.999,268.400 343.389,268.400 343.199 C 268.400 343.008,269.532 341.715,270.915 340.326 C 272.299 338.937,273.784 337.289,274.215 336.664 C 274.647 336.039,275.585 334.879,276.300 334.086 C 277.015 333.293,277.600 332.500,277.600 332.324 C 277.600 332.148,278.500 331.085,279.600 329.961 C 280.700 328.838,281.600 327.743,281.600 327.528 C 281.600 327.313,282.320 326.446,283.200 325.600 C 284.080 324.754,284.800 323.935,284.800 323.778 C 284.800 323.622,285.124 323.203,285.519 322.847 C 285.914 322.491,286.675 321.570,287.210 320.800 C 287.745 320.030,288.592 318.987,289.091 318.482 C 289.591 317.977,290.000 317.419,290.000 317.243 C 290.000 316.961,290.447 316.349,291.993 314.517 C 292.217 314.251,292.400 313.828,292.400 313.577 C 292.400 313.326,292.940 312.617,293.600 312.000 C 294.260 311.383,294.800 310.663,294.800 310.400 C 294.800 310.137,295.340 309.417,296.000 308.800 C 296.660 308.183,297.200 307.570,297.200 307.436 C 297.200 307.302,297.740 306.628,298.400 305.937 C 299.060 305.246,299.600 304.478,299.600 304.229 C 299.600 303.980,299.960 303.517,300.400 303.200 C 300.840 302.883,301.200 302.343,301.200 302.000 C 301.200 301.657,301.560 301.117,302.000 300.800 C 302.440 300.483,302.800 299.943,302.800 299.600 C 302.800 299.257,303.160 298.717,303.600 298.400 C 304.040 298.083,304.400 297.543,304.400 297.200 C 304.400 296.857,304.760 296.317,305.200 296.000 C 305.640 295.683,306.000 295.169,306.000 294.859 C 306.000 294.548,306.315 294.000,306.700 293.641 C 307.537 292.861,308.335 291.662,308.658 290.700 C 308.788 290.315,309.052 290.000,309.247 290.000 C 309.441 290.000,309.600 289.812,309.600 289.583 C 309.600 289.354,309.960 288.780,310.400 288.308 C 310.840 287.836,311.200 287.213,311.200 286.925 C 311.200 286.636,311.380 286.400,311.600 286.400 C 311.820 286.400,312.000 286.164,312.000 285.875 C 312.000 285.587,312.360 284.964,312.800 284.492 C 313.240 284.020,313.600 283.356,313.600 283.017 C 313.600 282.678,313.780 282.400,314.000 282.400 C 314.220 282.400,314.400 282.164,314.400 281.875 C 314.400 281.587,314.760 280.964,315.200 280.492 C 315.640 280.020,316.000 279.356,316.000 279.017 C 316.000 278.678,316.180 278.400,316.400 278.400 C 316.620 278.400,316.800 278.164,316.800 277.875 C 316.800 277.587,317.115 277.002,317.500 276.575 C 317.885 276.149,318.470 275.260,318.800 274.600 C 319.130 273.940,319.715 273.051,320.100 272.625 C 320.485 272.198,320.800 271.613,320.800 271.325 C 320.800 271.036,320.980 270.800,321.200 270.800 C 321.420 270.800,321.600 270.440,321.600 270.000 C 321.600 269.560,321.752 269.200,321.937 269.200 C 322.123 269.200,322.705 268.345,323.232 267.300 C 323.758 266.255,324.299 265.310,324.433 265.200 C 324.567 265.090,324.798 264.505,324.946 263.900 C 325.094 263.295,325.392 262.800,325.608 262.800 C 325.823 262.800,326.000 262.440,326.000 262.000 C 326.000 261.560,326.180 261.200,326.400 261.200 C 326.620 261.200,326.800 260.840,326.800 260.400 C 326.800 259.960,326.946 259.600,327.125 259.600 C 327.304 259.600,327.698 258.970,328.000 258.200 C 328.302 257.430,328.696 256.800,328.875 256.800 C 329.054 256.800,329.200 256.440,329.200 256.000 C 329.200 255.560,329.380 255.200,329.600 255.200 C 329.820 255.200,330.000 254.840,330.000 254.400 C 330.000 253.960,330.180 253.600,330.400 253.600 C 330.620 253.600,330.800 253.240,330.800 252.800 C 330.800 252.360,330.980 252.000,331.200 252.000 C 331.420 252.000,331.600 251.640,331.600 251.200 C 331.600 250.760,331.780 250.400,332.000 250.400 C 332.220 250.400,332.400 250.040,332.400 249.600 C 332.400 249.160,332.580 248.800,332.800 248.800 C 333.020 248.800,333.200 248.440,333.200 248.000 C 333.200 247.560,333.380 247.200,333.600 247.200 C 333.820 247.200,334.000 246.840,334.000 246.400 C 334.000 245.960,334.180 245.600,334.400 245.600 C 334.620 245.600,334.800 245.060,334.800 244.400 C 334.800 243.740,334.980 243.200,335.200 243.200 C 335.420 243.200,335.600 242.840,335.600 242.400 C 335.600 241.960,335.736 241.600,335.902 241.600 C 336.069 241.600,336.440 241.015,336.729 240.300 C 337.017 239.585,337.421 238.687,337.626 238.305 C 337.832 237.923,338.000 237.338,338.000 237.005 C 338.000 236.672,338.180 236.400,338.400 236.400 C 338.620 236.400,338.800 236.051,338.800 235.624 C 338.800 235.197,338.980 234.736,339.200 234.600 C 339.420 234.464,339.600 233.913,339.600 233.376 C 339.600 232.839,339.740 232.400,339.911 232.400 C 340.219 232.400,341.600 228.212,341.600 227.280 C 341.600 227.016,341.780 226.800,342.000 226.800 C 342.220 226.800,342.400 226.350,342.400 225.800 C 342.400 225.250,342.580 224.800,342.800 224.800 C 343.020 224.800,343.200 224.260,343.200 223.600 C 343.200 222.940,343.380 222.400,343.600 222.400 C 343.820 222.400,344.000 221.860,344.000 221.200 C 344.000 220.540,344.180 220.000,344.400 220.000 C 344.620 220.000,344.800 219.561,344.800 219.024 C 344.800 218.487,344.980 217.936,345.200 217.800 C 345.420 217.664,345.600 217.113,345.600 216.576 C 345.600 216.039,345.780 215.600,346.000 215.600 C 346.220 215.600,346.400 215.161,346.400 214.624 C 346.400 214.087,346.580 213.536,346.800 213.400 C 347.020 213.264,347.200 212.533,347.200 211.776 C 347.200 211.019,347.380 210.400,347.600 210.400 C 347.820 210.400,348.000 209.871,348.000 209.224 C 348.000 208.577,348.180 207.936,348.400 207.800 C 348.620 207.664,348.800 207.034,348.800 206.400 C 348.800 205.766,348.980 205.136,349.200 205.000 C 349.420 204.864,349.600 204.234,349.600 203.600 C 349.600 202.966,349.780 202.336,350.000 202.200 C 350.220 202.064,350.400 201.243,350.400 200.376 C 350.400 199.509,350.580 198.800,350.800 198.800 C 351.020 198.800,351.200 198.091,351.200 197.224 C 351.200 196.357,351.380 195.536,351.600 195.400 C 351.820 195.264,352.000 194.353,352.000 193.376 C 352.000 192.399,352.180 191.600,352.400 191.600 C 352.620 191.600,352.800 190.801,352.800 189.824 C 352.800 188.847,352.980 187.936,353.200 187.800 C 353.420 187.664,353.600 186.584,353.600 185.400 C 353.600 184.216,353.780 183.136,354.000 183.000 C 354.220 182.864,354.400 181.593,354.400 180.176 C 354.400 178.725,354.575 177.600,354.800 177.600 C 355.038 177.600,355.200 176.075,355.200 173.824 C 355.200 171.737,355.379 169.937,355.600 169.800 C 355.854 169.643,356.000 164.470,356.000 155.600 C 356.000 146.730,355.854 141.557,355.600 141.400 C 355.380 141.264,355.200 139.644,355.200 137.800 C 355.200 135.956,355.020 134.336,354.800 134.200 C 354.580 134.064,354.400 132.793,354.400 131.376 C 354.400 129.925,354.225 128.800,354.000 128.800 C 353.780 128.800,353.600 127.900,353.600 126.800 C 353.600 125.700,353.420 124.800,353.200 124.800 C 352.980 124.800,352.800 124.001,352.800 123.024 C 352.800 122.047,352.620 121.136,352.400 121.000 C 352.180 120.864,352.000 120.234,352.000 119.600 C 352.000 118.966,351.820 118.336,351.600 118.200 C 351.380 118.064,351.200 117.333,351.200 116.576 C 351.200 115.819,351.020 115.200,350.800 115.200 C 350.580 115.200,350.400 114.480,350.400 113.600 C 350.400 112.720,350.220 112.000,350.000 112.000 C 349.780 112.000,349.600 111.370,349.600 110.600 C 349.600 109.830,349.420 109.200,349.200 109.200 C 348.980 109.200,348.800 108.660,348.800 108.000 C 348.800 107.340,348.620 106.800,348.400 106.800 C 348.180 106.800,348.000 106.260,348.000 105.600 C 348.000 104.940,347.820 104.400,347.600 104.400 C 347.380 104.400,347.200 103.961,347.200 103.424 C 347.200 102.887,347.020 102.336,346.800 102.200 C 346.580 102.064,346.400 101.603,346.400 101.176 C 346.400 100.749,346.220 100.400,346.000 100.400 C 345.780 100.400,345.600 99.860,345.600 99.200 C 345.600 98.540,345.420 98.000,345.200 98.000 C 344.980 98.000,344.800 97.561,344.800 97.024 C 344.800 96.487,344.620 95.936,344.400 95.800 C 344.180 95.664,344.000 95.203,344.000 94.776 C 344.000 94.349,343.820 94.000,343.600 94.000 C 343.380 94.000,343.200 93.640,343.200 93.200 C 343.200 92.760,343.065 92.399,342.900 92.397 C 342.540 92.393,341.600 90.455,341.600 89.717 C 341.600 89.022,336.399 78.400,336.060 78.400 C 335.914 78.400,335.540 77.815,335.228 77.100 C 334.916 76.385,334.332 75.509,333.930 75.153 C 333.529 74.797,333.200 74.212,333.200 73.853 C 333.200 73.494,333.020 73.200,332.800 73.200 C 332.580 73.200,332.400 72.964,332.400 72.675 C 332.400 72.387,332.040 71.764,331.600 71.292 C 331.160 70.820,330.800 70.156,330.800 69.817 C 330.800 69.478,330.650 69.200,330.468 69.200 C 330.285 69.200,329.881 68.705,329.570 68.100 C 329.260 67.495,328.689 66.709,328.303 66.353 C 327.916 65.997,327.600 65.529,327.600 65.312 C 327.600 65.096,327.060 64.354,326.400 63.663 C 325.740 62.972,325.198 62.271,325.196 62.104 C 325.192 61.791,322.986 58.817,321.707 57.400 C 321.310 56.960,320.540 55.970,319.996 55.200 C 319.452 54.430,317.565 52.323,315.803 50.518 C 314.042 48.712,311.776 46.372,310.769 45.318 C 307.794 42.202,301.779 36.581,300.337 35.569 C 299.602 35.053,298.523 34.129,297.940 33.515 C 297.356 32.902,296.680 32.400,296.436 32.400 C 296.192 32.400,295.428 31.860,294.737 31.200 C 294.046 30.540,293.304 30.000,293.088 30.000 C 292.871 30.000,292.403 29.683,292.047 29.296 C 291.271 28.451,288.725 26.531,288.292 26.464 C 288.123 26.438,287.594 26.053,287.117 25.608 C 286.640 25.164,285.963 24.800,285.613 24.800 C 285.263 24.800,284.717 24.440,284.400 24.000 C 284.083 23.560,283.503 23.200,283.112 23.200 C 282.720 23.200,282.400 23.020,282.400 22.800 C 282.400 22.580,282.080 22.400,281.688 22.400 C 281.297 22.400,280.717 22.040,280.400 21.600 C 280.083 21.160,279.503 20.800,279.112 20.800 C 278.720 20.800,278.400 20.620,278.400 20.400 C 278.400 20.180,278.106 20.000,277.747 20.000 C 277.388 20.000,276.803 19.682,276.447 19.293 C 276.091 18.904,274.900 18.139,273.800 17.593 C 272.700 17.047,271.740 16.465,271.667 16.300 C 271.593 16.135,271.188 16.000,270.767 16.000 C 270.345 16.000,270.000 15.820,270.000 15.600 C 270.000 15.380,269.640 15.200,269.200 15.200 C 268.760 15.200,268.400 15.020,268.400 14.800 C 268.400 14.580,268.147 14.400,267.838 14.400 C 267.529 14.400,266.584 14.049,265.738 13.619 C 262.804 12.130,260.647 11.200,260.125 11.200 C 259.836 11.200,259.600 11.020,259.600 10.800 C 259.600 10.580,259.180 10.400,258.667 10.400 C 258.153 10.400,257.610 10.277,257.459 10.126 C 256.997 9.664,254.273 8.831,253.926 9.045 C 253.747 9.156,253.600 9.057,253.600 8.824 C 253.600 8.591,253.060 8.400,252.400 8.400 C 251.740 8.400,251.200 8.220,251.200 8.000 C 251.200 7.780,250.660 7.600,250.000 7.600 C 249.340 7.600,248.800 7.420,248.800 7.200 C 248.800 6.980,248.451 6.800,248.024 6.800 C 247.597 6.800,247.136 6.620,247.000 6.400 C 246.864 6.180,246.133 6.000,245.376 6.000 C 244.619 6.000,244.000 5.820,244.000 5.600 C 244.000 5.380,243.280 5.200,242.400 5.200 C 241.520 5.200,240.800 5.020,240.800 4.800 C 240.800 4.580,240.170 4.400,239.400 4.400 C 238.630 4.400,238.000 4.220,238.000 4.000 C 238.000 3.780,237.280 3.600,236.400 3.600 C 235.520 3.600,234.800 3.420,234.800 3.200 C 234.800 2.980,234.080 2.800,233.200 2.800 C 232.320 2.800,231.600 2.620,231.600 2.400 C 231.600 2.180,230.711 2.000,229.624 2.000 C 228.537 2.000,227.536 1.820,227.400 1.600 C 227.264 1.380,226.119 1.200,224.856 1.200 C 223.572 1.200,222.343 0.983,222.068 0.708 C 221.580 0.220,188.644 -0.128,181.200 0.276 M212.600 77.927 C 214.755 78.297,215.729 78.513,219.200 79.391 C 221.954 80.087,223.474 80.522,224.200 80.819 C 224.640 81.000,226.169 81.547,227.597 82.034 C 232.214 83.611,244.589 90.160,245.600 91.561 C 245.710 91.714,246.430 92.277,247.200 92.814 C 255.835 98.827,265.431 110.615,270.957 121.996 C 271.971 124.083,272.800 126.021,272.800 126.301 C 272.800 126.582,272.959 127.123,273.153 127.505 C 273.348 127.887,273.685 128.650,273.904 129.200 C 274.122 129.750,274.503 130.703,274.750 131.319 C 274.998 131.934,275.200 132.869,275.200 133.395 C 275.200 133.922,275.360 134.452,275.556 134.573 C 275.751 134.694,276.012 135.379,276.134 136.096 C 276.256 136.813,276.548 138.300,276.783 139.400 C 277.891 144.590,278.149 147.611,278.149 155.400 C 278.149 163.189,277.891 166.210,276.783 171.400 C 276.548 172.500,276.256 173.987,276.134 174.704 C 276.012 175.421,275.751 176.106,275.556 176.227 C 275.360 176.348,275.200 176.878,275.200 177.405 C 275.200 177.931,274.998 178.866,274.750 179.481 C 274.503 180.097,274.122 181.050,273.904 181.600 C 273.685 182.150,273.348 182.913,273.153 183.295 C 272.959 183.677,272.800 184.244,272.800 184.556 C 272.800 185.308,268.162 194.363,266.221 197.400 C 255.397 214.336,238.314 226.685,219.200 231.390 C 206.981 234.398,191.003 234.487,181.600 231.598 C 180.830 231.361,179.480 231.014,178.600 230.826 C 176.541 230.386,171.441 228.572,169.462 227.575 C 168.616 227.149,167.671 226.800,167.362 226.800 C 167.053 226.800,166.800 226.620,166.800 226.400 C 166.800 226.180,166.541 226.000,166.225 226.000 C 165.532 226.000,161.056 223.605,160.867 223.133 C 160.793 222.950,160.554 222.800,160.334 222.800 C 157.403 222.800,143.212 210.235,137.293 202.400 C 133.584 197.490,127.200 186.060,127.200 184.329 C 127.200 184.016,127.051 183.589,126.870 183.380 C 126.688 183.171,126.295 182.190,125.998 181.200 C 125.700 180.210,125.331 179.220,125.178 179.000 C 125.025 178.780,124.803 178.060,124.683 177.400 C 124.564 176.740,124.258 175.480,124.004 174.600 C 123.496 172.837,122.964 170.263,122.351 166.600 C 121.684 162.611,121.451 150.557,121.972 147.000 C 122.751 141.683,123.276 138.653,123.600 137.600 C 123.769 137.050,124.120 135.790,124.381 134.800 C 125.472 130.651,125.919 129.329,126.847 127.505 C 127.041 127.123,127.200 126.606,127.200 126.357 C 127.200 125.629,131.200 117.682,133.268 114.300 C 141.981 100.055,157.846 86.972,172.400 82.030 C 173.830 81.545,175.360 81.000,175.800 80.819 C 176.570 80.504,178.071 80.085,181.700 79.173 C 182.635 78.938,183.953 78.578,184.628 78.373 C 185.304 78.168,186.564 77.987,187.428 77.972 C 188.293 77.956,189.360 77.785,189.800 77.590 C 190.856 77.123,209.523 77.399,212.600 77.927 " stroke="none" fill="#ec3b43" fill-rule="evenodd"></path><path id="path2" d="M197.900 77.495 C 199.055 77.576,200.945 77.576,202.100 77.495 C 203.255 77.414,202.310 77.348,200.000 77.348 C 197.690 77.348,196.745 77.414,197.900 77.495 M189.800 78.000 L 188.200 78.286 189.600 78.296 C 190.370 78.301,191.540 78.168,192.200 78.000 C 193.828 77.586,192.113 77.586,189.800 78.000 M207.800 77.985 C 209.022 78.311,212.270 78.520,211.967 78.253 C 211.875 78.172,210.630 78.007,209.200 77.885 C 207.562 77.746,207.044 77.782,207.800 77.985 M184.800 78.800 C 183.443 79.086,183.437 79.095,184.600 79.107 C 185.260 79.115,186.250 78.976,186.800 78.800 C 188.112 78.380,186.796 78.380,184.800 78.800 M213.400 78.790 C 214.164 79.128,216.714 79.357,216.367 79.056 C 216.275 78.976,215.390 78.804,214.400 78.673 C 213.198 78.514,212.866 78.553,213.400 78.790 M181.200 79.600 C 180.396 79.857,180.357 79.923,181.000 79.932 C 181.440 79.938,182.160 79.789,182.600 79.600 C 183.619 79.162,182.568 79.162,181.200 79.600 M217.400 79.600 C 217.840 79.789,218.560 79.938,219.000 79.932 C 219.643 79.923,219.604 79.857,218.800 79.600 C 217.432 79.162,216.381 79.162,217.400 79.600 M178.080 80.395 C 177.354 80.567,176.647 80.820,176.509 80.958 C 176.171 81.296,178.844 80.776,179.600 80.357 C 180.316 79.960,179.868 79.971,178.080 80.395 M173.400 82.029 C 172.520 82.452,172.238 82.686,172.774 82.549 C 174.239 82.173,176.286 81.229,175.600 81.245 C 175.270 81.253,174.280 81.606,173.400 82.029 M225.026 81.765 C 227.044 82.644,228.326 82.859,226.600 82.029 C 225.720 81.606,224.730 81.253,224.400 81.245 C 224.070 81.238,224.352 81.472,225.026 81.765 M168.800 83.800 C 168.250 84.114,167.980 84.372,168.200 84.372 C 168.420 84.372,169.050 84.114,169.600 83.800 C 170.150 83.486,170.420 83.228,170.200 83.228 C 169.980 83.228,169.350 83.486,168.800 83.800 M155.585 91.218 L 154.200 92.435 155.695 91.518 C 156.517 91.013,157.192 90.465,157.195 90.300 C 157.203 89.837,157.069 89.913,155.585 91.218 M243.489 90.830 C 243.978 91.339,244.478 91.655,244.601 91.532 C 244.724 91.409,244.324 90.992,243.712 90.606 L 242.600 89.904 243.489 90.830 M247.042 93.460 C 248.119 94.264,249.626 95.479,250.391 96.160 C 251.272 96.945,251.492 97.052,250.991 96.451 C 250.112 95.397,245.824 92.000,245.373 92.000 C 245.215 92.000,245.966 92.657,247.042 93.460 M152.385 93.632 L 151.000 94.863 152.288 94.013 C 153.430 93.259,154.293 92.400,153.908 92.400 C 153.832 92.400,153.147 92.954,152.385 93.632 M148.981 96.500 L 147.400 98.200 149.100 96.619 C 150.681 95.148,150.984 94.800,150.681 94.800 C 150.616 94.800,149.851 95.565,148.981 96.500 M254.228 99.700 C 255.414 100.855,257.333 102.802,258.492 104.027 C 259.652 105.252,260.063 105.612,259.407 104.827 C 257.573 102.634,252.654 97.600,252.345 97.600 C 252.194 97.600,253.041 98.545,254.228 99.700 M144.587 100.500 L 142.200 103.000 144.700 100.613 C 147.022 98.395,147.383 98.000,147.087 98.000 C 147.026 98.000,145.901 99.125,144.587 100.500 M140.648 104.643 C 139.064 106.549,139.483 106.622,141.146 104.731 C 141.887 103.889,142.337 103.213,142.146 103.229 C 141.956 103.245,141.282 103.881,140.648 104.643 M261.540 107.916 C 262.033 108.609,262.644 109.304,262.897 109.460 C 263.150 109.617,262.954 109.177,262.460 108.484 C 261.967 107.791,261.356 107.096,261.103 106.940 C 260.850 106.783,261.046 107.223,261.540 107.916 M264.185 111.500 C 264.802 112.435,265.383 113.200,265.476 113.200 C 265.764 113.200,264.233 110.766,263.632 110.269 C 263.320 110.011,263.568 110.565,264.185 111.500 M266.950 115.800 C 267.274 116.460,267.831 117.360,268.189 117.800 C 268.797 118.548,268.801 118.522,268.250 117.400 C 267.926 116.740,267.369 115.840,267.011 115.400 C 266.403 114.652,266.399 114.678,266.950 115.800 M130.981 118.837 C 130.629 119.518,130.412 120.145,130.499 120.232 C 130.586 120.319,130.956 119.762,131.322 118.995 C 132.144 117.270,131.859 117.138,130.981 118.837 M268.838 119.000 C 268.838 119.220,269.361 120.390,270.000 121.600 C 270.639 122.810,271.162 123.620,271.162 123.400 C 271.162 123.180,270.639 122.010,270.000 120.800 C 269.361 119.590,268.838 118.780,268.838 119.000 M271.913 125.819 C 272.284 126.820,272.639 127.482,272.703 127.291 C 272.831 126.906,271.693 124.000,271.414 124.000 C 271.317 124.000,271.542 124.819,271.913 125.819 M124.846 134.067 C 124.821 134.434,124.696 135.064,124.570 135.467 C 124.352 136.162,124.363 136.163,124.797 135.487 C 125.048 135.096,125.173 134.466,125.073 134.087 C 124.911 133.468,124.888 133.466,124.846 134.067 M274.806 134.233 C 274.809 134.655,274.995 135.270,275.218 135.600 C 275.515 136.038,275.552 135.876,275.356 135.000 C 275.027 133.529,274.798 133.210,274.806 134.233 M275.606 137.433 C 275.609 137.855,275.795 138.470,276.018 138.800 C 276.315 139.238,276.352 139.076,276.156 138.200 C 275.827 136.729,275.598 136.410,275.606 137.433 M276.428 141.033 C 276.444 141.675,276.616 142.560,276.810 143.000 C 277.047 143.534,277.086 143.202,276.927 142.000 C 276.646 139.880,276.388 139.380,276.428 141.033 M123.054 141.954 C 122.900 142.918,122.858 143.791,122.961 143.894 C 123.230 144.163,123.715 141.345,123.507 140.722 C 123.412 140.436,123.208 140.990,123.054 141.954 M277.281 146.800 C 277.275 147.570,277.410 149.100,277.582 150.200 L 277.893 152.200 277.924 150.400 C 277.940 149.410,277.805 147.880,277.623 147.000 L 277.292 145.400 277.281 146.800 M122.289 147.756 C 122.130 148.832,122.023 150.542,122.052 151.556 C 122.094 153.066,122.168 152.857,122.459 150.400 C 122.865 146.969,122.726 144.801,122.289 147.756 M122.023 159.633 C 122.036 160.825,122.205 162.520,122.399 163.400 C 122.650 164.538,122.688 163.960,122.528 161.400 C 122.276 157.350,121.988 156.344,122.023 159.633 M277.454 161.536 C 277.281 163.371,277.227 164.960,277.334 165.067 C 277.610 165.343,278.108 160.362,277.923 159.179 C 277.839 158.640,277.628 159.701,277.454 161.536 M122.875 167.400 C 122.886 167.840,123.032 168.740,123.200 169.400 L 123.505 170.600 123.525 169.400 C 123.535 168.740,123.389 167.840,123.200 167.400 L 122.856 166.600 122.875 167.400 M276.656 168.084 C 276.521 168.588,276.428 169.450,276.449 170.000 C 276.472 170.589,276.631 170.271,276.836 169.225 C 277.203 167.352,277.073 166.527,276.656 168.084 M275.849 172.215 C 275.712 172.573,275.615 173.166,275.634 173.533 C 275.653 173.900,275.827 173.669,276.021 173.020 C 276.398 171.758,276.265 171.133,275.849 172.215 M124.644 175.800 C 124.973 177.271,125.202 177.590,125.194 176.567 C 125.191 176.145,125.005 175.530,124.782 175.200 C 124.485 174.762,124.448 174.924,124.644 175.800 M275.049 175.415 C 274.912 175.773,274.815 176.366,274.834 176.733 C 274.853 177.100,275.027 176.869,275.221 176.220 C 275.598 174.958,275.465 174.333,275.049 175.415 M272.432 183.504 C 272.406 183.912,271.224 186.739,270.510 188.100 C 270.424 188.265,270.448 188.400,270.565 188.400 C 270.948 188.400,272.838 183.912,272.649 183.451 C 272.525 183.151,272.453 183.169,272.432 183.504 M129.309 188.300 C 129.395 188.465,129.774 189.275,130.152 190.100 C 130.529 190.925,130.930 191.600,131.042 191.600 C 131.155 191.600,131.177 191.465,131.091 191.300 C 131.005 191.135,130.626 190.325,130.248 189.500 C 129.871 188.675,129.470 188.000,129.358 188.000 C 129.245 188.000,129.223 188.135,129.309 188.300 M268.678 191.805 C 268.312 192.572,268.095 193.200,268.196 193.200 C 268.470 193.200,269.684 190.751,269.501 190.568 C 269.414 190.481,269.044 191.038,268.678 191.805 M267.000 194.800 C 266.659 195.460,266.469 196.000,266.579 196.000 C 266.689 196.000,267.059 195.460,267.400 194.800 C 267.741 194.140,267.931 193.600,267.821 193.600 C 267.711 193.600,267.341 194.140,267.000 194.800 M136.740 201.116 C 137.233 201.809,137.844 202.504,138.097 202.660 C 138.350 202.817,138.154 202.377,137.660 201.684 C 137.167 200.991,136.556 200.296,136.303 200.140 C 136.050 199.983,136.246 200.423,136.740 201.116 M139.494 204.600 C 140.172 205.480,141.323 206.740,142.053 207.400 C 142.824 208.097,142.561 207.677,141.427 206.400 C 138.700 203.329,138.052 202.726,139.494 204.600 M258.400 206.662 C 257.410 207.885,254.710 210.603,252.400 212.702 C 247.732 216.945,247.026 217.631,248.200 216.785 C 251.377 214.494,261.479 204.364,260.530 204.419 C 260.349 204.430,259.390 205.439,258.400 206.662 M144.783 210.500 C 146.441 212.266,146.800 212.584,146.800 212.283 C 146.800 212.219,145.945 211.364,144.900 210.383 L 143.000 208.600 144.783 210.500 M148.600 214.000 C 149.459 214.880,150.252 215.600,150.362 215.600 C 150.472 215.600,149.859 214.880,149.000 214.000 C 148.141 213.120,147.348 212.400,147.238 212.400 C 147.128 212.400,147.741 213.120,148.600 214.000 M150.805 215.880 C 150.808 216.056,151.438 216.607,152.205 217.104 C 154.003 218.268,154.000 218.000,152.200 216.627 C 151.430 216.040,150.802 215.703,150.805 215.880 M243.738 219.541 C 241.944 220.783,240.144 222.029,239.738 222.308 C 239.120 222.734,239.163 222.740,240.000 222.346 C 241.388 221.694,246.690 218.102,246.996 217.606 C 247.346 217.040,247.372 217.024,243.738 219.541 M156.404 220.122 C 159.619 222.254,162.800 224.100,162.800 223.834 C 162.800 223.724,161.945 223.142,160.900 222.541 C 159.855 221.940,157.975 220.763,156.722 219.924 C 155.469 219.086,154.301 218.400,154.126 218.400 C 153.951 218.400,154.977 219.175,156.404 220.122 M237.265 223.592 C 235.602 224.520,235.307 224.802,236.260 224.551 C 236.937 224.374,239.262 222.799,238.800 222.832 C 238.690 222.840,237.999 223.181,237.265 223.592 M180.000 230.800 C 180.330 231.013,180.870 231.188,181.200 231.188 C 181.733 231.188,181.733 231.145,181.200 230.800 C 180.870 230.587,180.330 230.412,180.000 230.412 C 179.467 230.412,179.467 230.455,180.000 230.800 M219.000 230.800 C 218.708 231.273,219.099 231.273,220.200 230.800 C 220.971 230.469,220.969 230.455,220.124 230.428 C 219.642 230.413,219.136 230.580,219.000 230.800 M183.200 231.582 C 183.530 231.805,184.145 231.991,184.567 231.994 C 185.590 232.002,185.271 231.773,183.800 231.444 C 182.924 231.248,182.762 231.285,183.200 231.582 M187.600 232.400 C 188.150 232.576,188.960 232.720,189.400 232.720 C 190.033 232.720,189.992 232.654,189.200 232.400 C 188.650 232.224,187.840 232.080,187.400 232.080 C 186.767 232.080,186.808 232.146,187.600 232.400 M210.800 232.400 C 210.008 232.654,209.967 232.720,210.600 232.720 C 211.040 232.720,211.850 232.576,212.400 232.400 C 213.192 232.146,213.233 232.080,212.600 232.080 C 212.160 232.080,211.350 232.224,210.800 232.400 M192.691 233.089 C 193.401 233.177,194.661 233.179,195.491 233.092 C 196.321 233.005,195.740 232.933,194.200 232.931 C 192.660 232.929,191.981 233.000,192.691 233.089 M204.291 233.089 C 205.001 233.177,206.261 233.179,207.091 233.092 C 207.921 233.005,207.340 232.933,205.800 232.931 C 204.260 232.929,203.581 233.000,204.291 233.089 M198.500 233.491 C 199.325 233.578,200.675 233.578,201.500 233.491 C 202.325 233.405,201.650 233.334,200.000 233.334 C 198.350 233.334,197.675 233.405,198.500 233.491 " stroke="none" fill="#f69594" fill-rule="evenodd"></path><path id="path3" d="M189.800 77.614 C 189.278 77.848,189.763 77.888,191.200 77.732 C 192.410 77.600,193.475 77.426,193.567 77.346 C 193.921 77.036,190.557 77.275,189.800 77.614 M206.433 77.346 C 206.525 77.426,207.590 77.600,208.800 77.732 C 210.237 77.888,210.722 77.848,210.200 77.614 C 209.443 77.275,206.079 77.036,206.433 77.346 M184.800 78.421 C 184.370 78.714,184.654 78.754,185.800 78.562 C 187.784 78.230,188.104 77.998,186.567 78.006 C 185.925 78.009,185.130 78.196,184.800 78.421 M212.433 78.147 C 212.525 78.228,213.320 78.414,214.200 78.562 C 215.346 78.754,215.630 78.714,215.200 78.421 C 214.660 78.053,212.032 77.793,212.433 78.147 M235.633 85.729 C 236.293 86.239,239.600 87.994,239.600 87.834 C 239.600 87.576,236.236 85.600,235.798 85.600 C 235.616 85.600,235.542 85.658,235.633 85.729 M160.500 87.646 C 159.137 88.519,158.695 89.106,159.900 88.443 C 160.818 87.939,162.256 86.827,162.000 86.819 C 161.890 86.816,161.215 87.188,160.500 87.646 M156.060 90.403 C 155.147 91.064,154.400 91.703,154.400 91.823 C 154.400 92.011,156.654 90.477,157.780 89.522 C 158.727 88.719,157.556 89.318,156.060 90.403 M242.000 89.301 C 242.000 89.555,245.096 91.600,245.480 91.600 C 245.644 91.600,245.423 91.358,244.989 91.061 C 243.081 89.759,242.000 89.122,242.000 89.301 M152.385 93.229 L 151.000 94.458 152.500 93.381 C 153.826 92.430,154.257 92.000,153.885 92.000 C 153.822 92.000,153.147 92.553,152.385 93.229 M149.478 95.413 C 148.860 95.956,148.514 96.400,148.708 96.400 C 148.902 96.400,149.483 95.950,150.000 95.400 C 151.195 94.128,150.931 94.134,149.478 95.413 M253.000 98.000 C 254.083 99.100,255.060 100.000,255.170 100.000 C 255.280 100.000,254.483 99.100,253.400 98.000 C 252.317 96.900,251.340 96.000,251.230 96.000 C 251.120 96.000,251.917 96.900,253.000 98.000 M144.012 100.588 C 142.379 102.232,141.124 103.630,141.222 103.695 C 141.320 103.760,142.738 102.416,144.372 100.707 C 148.165 96.743,147.913 96.661,144.012 100.588 M257.000 102.000 C 257.859 102.880,258.652 103.600,258.762 103.600 C 258.872 103.600,258.259 102.880,257.400 102.000 C 256.541 101.120,255.748 100.400,255.638 100.400 C 255.528 100.400,256.141 101.120,257.000 102.000 M139.071 106.046 C 138.230 107.120,137.623 108.000,137.723 108.000 C 138.005 108.000,140.908 104.373,140.745 104.224 C 140.665 104.151,139.912 104.971,139.071 106.046 M262.175 108.132 C 262.791 108.939,263.376 109.600,263.475 109.600 C 263.753 109.600,262.021 107.260,261.509 106.944 C 261.259 106.789,261.559 107.324,262.175 108.132 M136.175 109.868 C 135.559 110.676,135.259 111.211,135.509 111.056 C 136.021 110.740,137.753 108.400,137.475 108.400 C 137.376 108.400,136.791 109.061,136.175 109.868 M264.604 111.400 C 266.207 113.626,266.650 114.039,265.757 112.473 C 265.341 111.743,264.652 110.843,264.226 110.473 C 263.776 110.082,263.934 110.469,264.604 111.400 M133.400 114.000 C 133.059 114.660,132.869 115.200,132.979 115.200 C 133.089 115.200,133.459 114.660,133.800 114.000 C 134.141 113.340,134.331 112.800,134.221 112.800 C 134.111 112.800,133.741 113.340,133.400 114.000 M124.249 135.015 C 124.112 135.373,124.015 135.966,124.034 136.333 C 124.053 136.700,124.227 136.469,124.421 135.820 C 124.798 134.558,124.665 133.933,124.249 135.015 M123.449 137.815 C 123.312 138.173,123.215 138.766,123.234 139.133 C 123.253 139.500,123.427 139.269,123.621 138.620 C 123.998 137.358,123.865 136.733,123.449 137.815 M277.082 142.600 C 277.209 143.700,277.377 144.675,277.456 144.767 C 277.755 145.114,277.528 142.164,277.197 141.400 C 276.974 140.885,276.933 141.313,277.082 142.600 M122.501 143.800 C 122.505 144.680,122.587 144.993,122.683 144.495 C 122.779 143.998,122.775 143.278,122.675 142.895 C 122.575 142.513,122.496 142.920,122.501 143.800 M277.800 155.400 C 277.800 160.554,277.922 164.462,278.072 164.085 C 278.221 163.708,278.344 159.800,278.344 155.400 C 278.344 151.000,278.221 147.092,278.072 146.715 C 277.922 146.338,277.800 150.246,277.800 155.400 M121.767 155.400 C 121.767 159.580,121.826 161.236,121.898 159.079 C 121.971 156.923,121.970 153.503,121.898 151.479 C 121.825 149.456,121.766 151.220,121.767 155.400 M122.501 167.000 C 122.505 167.880,122.587 168.193,122.683 167.695 C 122.779 167.198,122.775 166.478,122.675 166.095 C 122.575 165.713,122.496 166.120,122.501 167.000 M277.259 167.000 C 277.220 167.660,277.096 168.650,276.983 169.200 L 276.777 170.200 277.208 169.214 C 277.444 168.672,277.568 167.682,277.483 167.014 L 277.328 165.800 277.259 167.000 M123.206 171.633 C 123.209 172.165,123.389 172.870,123.606 173.200 C 123.882 173.622,123.923 173.385,123.742 172.400 C 123.425 170.675,123.198 170.349,123.206 171.633 M276.446 171.667 C 276.421 172.034,276.296 172.664,276.170 173.067 C 275.952 173.762,275.963 173.763,276.397 173.087 C 276.648 172.696,276.773 172.066,276.673 171.687 C 276.511 171.068,276.488 171.066,276.446 171.667 M124.006 174.633 C 124.009 175.055,124.195 175.670,124.418 176.000 C 124.715 176.438,124.752 176.276,124.556 175.400 C 124.227 173.929,123.998 173.610,124.006 174.633 M275.646 174.667 C 275.621 174.924,275.484 175.464,275.341 175.867 C 275.140 176.436,275.194 176.497,275.579 176.142 C 275.852 175.891,275.989 175.351,275.884 174.942 C 275.779 174.534,275.672 174.410,275.646 174.667 M270.278 189.405 C 269.912 190.172,269.695 190.800,269.796 190.800 C 270.070 190.800,271.284 188.351,271.101 188.168 C 271.014 188.081,270.644 188.638,270.278 189.405 M267.108 195.300 C 266.233 196.649,265.448 198.256,265.887 197.800 C 266.448 197.217,268.098 194.400,267.879 194.400 C 267.776 194.400,267.429 194.805,267.108 195.300 M133.630 197.100 C 137.153 203.004,147.523 214.401,152.213 217.523 C 153.856 218.617,153.965 218.652,152.844 217.723 C 144.471 210.790,138.429 204.223,134.422 197.700 C 133.712 196.545,133.042 195.600,132.933 195.600 C 132.824 195.600,133.138 196.275,133.630 197.100 M263.944 200.300 C 262.793 201.689,262.306 202.400,262.504 202.400 C 262.614 202.400,263.186 201.770,263.773 201.000 C 264.863 199.571,264.995 199.032,263.944 200.300 M260.374 204.900 C 259.410 206.055,258.939 206.747,259.326 206.438 C 260.104 205.818,262.568 202.800,262.296 202.800 C 262.202 202.800,261.337 203.745,260.374 204.900 M254.992 210.896 C 252.291 213.675,252.907 213.423,255.773 210.576 C 257.124 209.235,258.930 207.200,258.770 207.200 C 258.667 207.200,256.967 208.863,254.992 210.896 M249.786 215.512 C 249.119 216.110,247.949 217.107,247.186 217.726 C 246.037 218.659,246.122 218.632,247.681 217.571 C 249.352 216.434,251.620 214.381,251.170 214.412 C 251.076 214.418,250.454 214.913,249.786 215.512 M154.669 219.232 C 155.166 219.833,157.600 221.364,157.600 221.076 C 157.600 220.983,156.835 220.402,155.900 219.785 C 154.965 219.168,154.411 218.920,154.669 219.232 M243.400 220.261 C 240.791 222.103,240.616 222.337,242.709 221.184 C 243.650 220.666,244.713 219.918,245.071 219.521 C 245.983 218.513,245.694 218.642,243.400 220.261 M238.300 223.429 C 237.695 223.757,237.200 224.110,237.200 224.213 C 237.200 224.599,237.832 224.357,238.800 223.600 C 239.989 222.670,239.811 222.609,238.300 223.429 M176.346 230.178 C 177.086 230.520,178.076 230.782,178.546 230.759 C 179.191 230.728,179.106 230.638,178.200 230.389 C 175.303 229.596,175.015 229.563,176.346 230.178 M223.000 229.989 C 222.560 230.174,221.570 230.511,220.800 230.740 L 219.400 231.155 221.000 230.915 C 222.664 230.666,225.451 229.623,224.400 229.643 C 224.070 229.649,223.440 229.805,223.000 229.989 M180.833 231.344 C 180.925 231.423,181.540 231.608,182.200 231.756 C 183.076 231.952,183.238 231.915,182.800 231.618 C 182.260 231.253,180.432 230.998,180.833 231.344 M217.200 231.618 C 216.762 231.915,216.924 231.952,217.800 231.756 C 219.271 231.427,219.590 231.198,218.567 231.206 C 218.145 231.209,217.530 231.395,217.200 231.618 M184.100 232.276 C 184.485 232.376,185.115 232.376,185.500 232.276 C 185.885 232.175,185.570 232.093,184.800 232.093 C 184.030 232.093,183.715 232.175,184.100 232.276 M214.500 232.276 C 214.885 232.376,215.515 232.376,215.900 232.276 C 216.285 232.175,215.970 232.093,215.200 232.093 C 214.430 232.093,214.115 232.175,214.500 232.276 M189.105 233.083 C 189.602 233.179,190.322 233.175,190.705 233.075 C 191.087 232.975,190.680 232.896,189.800 232.901 C 188.920 232.905,188.607 232.987,189.105 233.083 M209.505 233.083 C 210.002 233.179,210.722 233.175,211.105 233.075 C 211.487 232.975,211.080 232.896,210.200 232.901 C 209.320 232.905,209.007 232.987,209.505 233.083 M192.500 233.487 C 193.105 233.578,194.095 233.578,194.700 233.487 C 195.305 233.395,194.810 233.320,193.600 233.320 C 192.390 233.320,191.895 233.395,192.500 233.487 M205.300 233.487 C 205.905 233.578,206.895 233.578,207.500 233.487 C 208.105 233.395,207.610 233.320,206.400 233.320 C 205.190 233.320,204.695 233.395,205.300 233.487 " stroke="none" fill="#f47b7a" fill-rule="evenodd"></path><path id="path4" d="M194.100 77.476 C 194.485 77.576,195.115 77.576,195.500 77.476 C 195.885 77.375,195.570 77.293,194.800 77.293 C 194.030 77.293,193.715 77.375,194.100 77.476 M204.500 77.476 C 204.885 77.576,205.515 77.576,205.900 77.476 C 206.285 77.375,205.970 77.293,205.200 77.293 C 204.430 77.293,204.115 77.375,204.500 77.476 " stroke="none" fill="#f48c8c" fill-rule="evenodd"></path></g></svg>